<?xml version="1.0" encoding="UTF-8"?>
<svg version="1.1" xmlns="http://www.w3.org/2000/svg" width="360" height="357">
<path d="M0 0 C0.91850235 -0.0038269 1.8370047 -0.00765381 2.78334045 -0.01159668 C4.72593277 -0.01431868 6.66856157 -0.00693734 8.61108398 0.00976562 C11.58335282 0.03114711 14.55319774 0.00998674 17.52539062 -0.015625 C19.41276575 -0.01298129 21.30013937 -0.00785543 23.1875 0 C24.07614243 -0.00809692 24.96478485 -0.01619385 25.88035583 -0.02453613 C32.01468749 0.06855192 32.01468749 0.06855192 35.21313477 2.36132812 C37.43236951 5.68924418 37.31519848 7.60099662 36.66015625 11.53125 C35.00057305 14.48718687 32.86125776 16.96329824 30.66015625 19.53125 C29.09294225 21.40231161 27.53064454 23.27749942 25.97265625 25.15625 C25.22628906 26.03539062 24.47992188 26.91453125 23.7109375 27.8203125 C21.58606215 30.45540262 21.58606215 30.45540262 20.21484375 33.4375 C18.35625504 37.13599813 16.0353712 40.17452387 13.47265625 43.40625 C13.00923828 43.99921875 12.54582031 44.5921875 12.06835938 45.203125 C10.93693707 46.64947929 9.79919664 48.09088749 8.66015625 49.53125 C12.76418988 49.61819042 16.86798754 49.67162149 20.97265625 49.71875 C22.72352539 49.75645508 22.72352539 49.75645508 24.50976562 49.79492188 C25.62802734 49.80458984 26.74628906 49.81425781 27.8984375 49.82421875 C28.93009033 49.8399292 29.96174316 49.85563965 31.0246582 49.87182617 C33.67887447 49.74706405 33.67887447 49.74706405 35.47729492 48.1809082 C37.01132718 46.04149521 37.31115953 44.11382576 37.66015625 41.53125 C33.20515625 42.02625 33.20515625 42.02625 28.66015625 42.53125 C26.66015625 39.53125 26.66015625 39.53125 26.59765625 36.84375 C27.9002833 32.78261862 29.93401735 30.62754273 32.828125 27.5625 C34.54622614 25.6575691 35.86045757 23.75906907 37.22265625 21.59375 C39.66015625 18.53125 39.66015625 18.53125 42.66015625 17.46875 C49.18595903 17.60470422 52.54122533 20.96674025 56.84765625 25.40625 C57.38068359 25.93605469 57.91371094 26.46585938 58.46289062 27.01171875 C63.47440683 32.09257669 63.47440683 32.09257669 64.66015625 35.53125 C64.47265625 38.65625 64.47265625 38.65625 63.66015625 41.53125 C59.77856745 44.11897586 58.12589148 43.40844799 53.66015625 42.53125 C52.17515625 42.03625 52.17515625 42.03625 50.66015625 41.53125 C51.15515625 45.49125 51.15515625 45.49125 51.66015625 49.53125 C54.48263953 50.28177396 57.26437009 50.83694258 60.16015625 51.21875 C60.91296875 51.32574219 61.66578125 51.43273437 62.44140625 51.54296875 C65.06509549 51.52911124 66.46587267 50.94117344 68.66015625 49.53125 C70.01993248 46.81169754 69.84019514 44.57612631 69.90625 41.53515625 C69.95555664 39.73788086 69.95555664 39.73788086 70.00585938 37.90429688 C70.06696105 35.36792746 70.12426486 32.83146366 70.17773438 30.29492188 C70.21189453 29.09544922 70.24605469 27.89597656 70.28125 26.66015625 C70.31883423 25.00608765 70.31883423 25.00608765 70.35717773 23.31860352 C70.66015625 20.53125 70.66015625 20.53125 72.66015625 17.53125 C75.26171875 17.23828125 75.26171875 17.23828125 78.28515625 17.34375 C79.78949219 17.38435547 79.78949219 17.38435547 81.32421875 17.42578125 C82.09507812 17.46058594 82.8659375 17.49539062 83.66015625 17.53125 C85.69069861 23.32495966 85.8516636 28.24632576 85.47265625 34.34375 C85.42077148 35.2301416 85.36888672 36.1165332 85.31542969 37.02978516 C84.68587709 46.17849731 83.59803745 54.05589421 76.66015625 60.53125 C69.90780309 64.71448074 63.24682024 66.77680132 55.27734375 65 C49.03170533 63.15241564 49.03170533 63.15241564 47.3984375 60.421875 C47.15480469 59.79796875 46.91117188 59.1740625 46.66015625 58.53125 C43.31817806 58.53125 40.77852891 60.6791617 37.94921875 62.33984375 C29.03748471 66.97820362 16.61560677 65.64188888 6.78515625 65.71875 C5.46656616 65.73820679 5.46656616 65.73820679 4.12133789 65.75805664 C-1.3657699 65.76585009 -6.1195579 65.28886302 -11.33984375 63.53125 C-13.56328911 60.19608196 -13.62830646 58.61519432 -13.01318359 54.72119141 C-11.72929387 50.54552397 -8.92972663 47.51390609 -6.15234375 44.21875 C-4.88182963 42.65028565 -3.61367789 41.0799053 -2.34765625 39.5078125 C-1.69055664 38.69860352 -1.03345703 37.88939453 -0.35644531 37.05566406 C3.0299168 32.81656186 6.2545059 28.46114982 9.47265625 24.09375 C10.07682373 23.28317139 10.68099121 22.47259277 11.3034668 21.63745117 C11.86074463 20.88181885 12.41802246 20.12618652 12.9921875 19.34765625 C13.48436768 18.68193604 13.97654785 18.01621582 14.48364258 17.33032227 C15.83532119 15.43003443 15.83532119 15.43003443 16.66015625 12.53125 C16.02078125 12.85480469 15.38140625 13.17835938 14.72265625 13.51171875 C10.64263018 14.86999274 6.93089696 14.86108255 2.66015625 14.84375 C1.86609375 14.85986328 1.07203125 14.87597656 0.25390625 14.89257812 C-4.38610257 14.8964448 -7.64699865 14.66151323 -11.33984375 11.53125 C-12.36019408 8.02379574 -12.85472549 5.76158825 -11.42358398 2.34179688 C-8.03074035 -0.60622051 -4.34719757 -0.03951975 0 0 Z " fill="#4595EB" transform="translate(83.33984375,147.46875)"/>
<path d="M0 0 C1.21236328 0.02707031 1.21236328 0.02707031 2.44921875 0.0546875 C3.37154297 0.08949219 3.37154297 0.08949219 4.3125 0.125 C4.6425 0.785 4.9725 1.445 5.3125 2.125 C4.9825 2.785 4.6525 3.445 4.3125 4.125 C5.199375 3.465 6.08625 2.805 7 2.125 C12.345796 -1.01178939 18.32387726 -0.19919612 24.3125 0.125 C24.3125 0.785 24.3125 1.445 24.3125 2.125 C25.3025 1.795 26.2925 1.465 27.3125 1.125 C27.3125 2.115 27.3125 3.105 27.3125 4.125 C27.9725 4.125 28.6325 4.125 29.3125 4.125 C29.3125 4.785 29.3125 5.445 29.3125 6.125 C29.91835937 5.691875 30.52421875 5.25875 31.1484375 4.8125 C37.27194236 0.74272446 41.94949344 -1.27288668 49.3125 0.125 C55.2267534 1.98938811 58.83206136 5.06254379 62.3125 10.125 C64.25262302 15.76473162 63.53880339 22.18277754 63.5625 28.0625 C63.583125 29.33802734 63.60375 30.61355469 63.625 31.92773438 C63.63273437 33.77141602 63.63273437 33.77141602 63.640625 35.65234375 C63.6499707 36.77374756 63.65931641 37.89515137 63.66894531 39.05053711 C63.26637821 42.52281621 62.46638643 44.38670894 60.3125 47.125 C56.83305002 48.0739409 54.45933703 48.49694714 51 47.375 C49.3125 46.125 49.3125 46.125 47.3125 43.125 C46.72216625 37.40176433 47.47386249 31.78580321 48.3125 26.125 C48.64323596 22.21630231 48.57762206 18.87357992 47.25 15.125 C45.35706909 12.78098285 45.35706909 12.78098285 41.8125 12.5 C38.30021244 12.76438827 38.30021244 12.76438827 36.59375 14.98046875 C34.36102086 20.46018507 35.19888281 26.19366607 35.4296875 32.02148438 C35.56335696 37.49821931 35.55662528 41.44655082 32.3125 46.125 C29.3125 48.125 29.3125 48.125 25.8125 47.9375 C21.24596744 46.87741208 21.24596744 46.87741208 19.3125 44.125 C19.00366211 41.26171875 19.00366211 41.26171875 19.08984375 37.8125 C19.10853516 36.57242188 19.12722656 35.33234375 19.14648438 34.0546875 C19.18064453 32.75789063 19.21480469 31.46109375 19.25 30.125 C19.30985502 27.56269589 19.36105332 25.0001705 19.40234375 22.4375 C19.43191162 21.29925781 19.46147949 20.16101563 19.49194336 18.98828125 C19.54014321 15.92309608 19.54014321 15.92309608 17.3125 13.125 C15.33502878 12.76202064 15.33502878 12.76202064 13.1875 12.9375 C11.90875 12.999375 10.63 13.06125 9.3125 13.125 C6.08993984 20.79210954 6.2774915 26.87954772 7.16210938 35.015625 C7.70578609 41.44178585 7.70578609 41.44178585 5.55859375 45.171875 C2.49005495 47.84016961 0.34009061 48.125 -3.6875 48.125 C-5.87524414 47.22680664 -5.87524414 47.22680664 -7.6875 45.125 C-8.29453407 41.92118368 -8.22335453 38.74808384 -8.18359375 35.49609375 C-8.18504898 34.55065201 -8.18650421 33.60521027 -8.18800354 32.63111877 C-8.1863437 30.63303545 -8.17477297 28.63493946 -8.15405273 26.63696289 C-8.12507633 23.57057715 -8.13344606 20.50591704 -8.14648438 17.43945312 C-8.14024784 15.49999156 -8.13185757 13.56053547 -8.12109375 11.62109375 C-8.12402939 10.70025497 -8.12696503 9.7794162 -8.12998962 8.83067322 C-8.11730545 7.97961502 -8.10462128 7.12855682 -8.09155273 6.25170898 C-8.08614975 5.50130844 -8.08074677 4.7509079 -8.07518005 3.97776794 C-7.19221989 -0.24200111 -3.5439786 -0.10272402 0 0 Z " fill="#736EEA" transform="translate(180.6875,163.875)"/>
<path d="M0 0 C2.57907854 1.82597898 4.66493958 4.00456167 6.8125 6.3125 C7.38419922 6.89451172 7.95589844 7.47652344 8.54492188 8.07617188 C11.25426456 10.88739348 13.50746623 13.34009047 15 17 C14.8125 20.125 14.8125 20.125 14 23 C10.1184112 25.58772586 8.46573523 24.87719799 4 24 C3.01 23.67 2.02 23.34 1 23 C1.33 25.64 1.66 28.28 2 31 C4.82248328 31.75052396 7.60421384 32.30569258 10.5 32.6875 C11.2528125 32.79449219 12.005625 32.90148437 12.78125 33.01171875 C15.40493924 32.99786124 16.80571642 32.40992344 19 31 C20.35977623 28.28044754 20.18003889 26.04487631 20.24609375 23.00390625 C20.27896484 21.80572266 20.31183594 20.60753906 20.34570312 19.37304688 C20.4068048 16.83667746 20.46410861 14.30021366 20.51757812 11.76367188 C20.55173828 10.56419922 20.58589844 9.36472656 20.62109375 8.12890625 C20.65867798 6.47483765 20.65867798 6.47483765 20.69702148 4.78735352 C21 2 21 2 23 -1 C25.6015625 -1.29296875 25.6015625 -1.29296875 28.625 -1.1875 C30.12933594 -1.14689453 30.12933594 -1.14689453 31.6640625 -1.10546875 C32.43492187 -1.07066406 33.20578125 -1.03585938 34 -1 C36.03054236 4.79370966 36.19150735 9.71507576 35.8125 15.8125 C35.76061523 16.6988916 35.70873047 17.5852832 35.65527344 18.49853516 C35.02572084 27.64724731 33.9378812 35.52464421 27 42 C20.24764684 46.18323074 13.58666399 48.24555132 5.6171875 46.46875 C-0.62845092 44.62116564 -0.62845092 44.62116564 -2.26171875 41.890625 C-2.50535156 41.26671875 -2.74898437 40.6428125 -3 40 C-6.38042483 40 -8.97505226 42.28137444 -11.80859375 44.00390625 C-14 45 -14 45 -17 44 C-16.34 44 -15.68 44 -15 44 C-15.103125 42.741875 -15.20625 41.48375 -15.3125 40.1875 C-15.32421875 37.98046875 -15.32421875 37.98046875 -15 36 C-12.59140121 33.97170628 -11.16955691 33 -8 33 C-8 32.34 -8 31.68 -8 31 C-10.64 31.33 -13.28 31.66 -16 32 C-15.525625 31.443125 -15.05125 30.88625 -14.5625 30.3125 C-12.87604004 27.81653926 -12.41046893 25.9553763 -12 23 C-14.97 23.33 -17.94 23.66 -21 24 C-23 21 -23 21 -23.0625 18.3125 C-21.76100769 14.25490633 -19.72540112 12.10186184 -16.84375 9.03125 C-15.11325997 7.12477793 -13.68402151 5.1960442 -12.25 3.0625 C-8.66932384 -1.8111981 -5.58842662 -1.43068393 0 0 Z " fill="#538BEB" transform="translate(133,166)"/>
<path d="M0 0 C5.4751225 5.00915463 7.65232478 11.17557258 8.3125 18.4375 C8 21 8 21 6 23 C-3.02491938 24.86479816 -12.82337863 24.0968225 -22 24 C-21.42547254 27.93075644 -21.42547254 27.93075644 -19 31 C-14.06690138 31.77558772 -9.53441581 31.70292004 -5.25 29 C-1.71731371 26.82603921 -0.05993457 26.35410132 4 27 C5.875 28.5 5.875 28.5 7 30 C5.9328367 34.98009541 4.01274681 37.60068716 0.1171875 40.671875 C-5.70095788 44.3216341 -12.00200531 45.70295405 -18.7734375 44.56640625 C-26.32841225 42.64452671 -31.75181178 39.67183406 -36 33 C-40.51283081 24.62391251 -39.6977884 15.71986315 -37.30859375 6.74609375 C-34.96211849 1.82199791 -30.8524656 0.04796973 -26 -2 C-25.01 -2.45375 -24.02 -2.9075 -23 -3.375 C-14.68217468 -5.10788028 -7.43477174 -4.24655112 0 0 Z M-21.4375 8.8125 C-23.2906191 10.95882896 -23.2906191 10.95882896 -23 14 C-15.25661364 14.38958535 -15.25661364 14.38958535 -8 12 C-9.52791204 9.35832772 -9.52791204 9.35832772 -12 7 C-16.10300985 6.3405877 -18.06845905 6.3073157 -21.4375 8.8125 Z " fill="#8559E7" transform="translate(286,168)"/>
<path d="M0 0 C1.21236328 0.02707031 1.21236328 0.02707031 2.44921875 0.0546875 C3.37154297 0.08949219 3.37154297 0.08949219 4.3125 0.125 C4.6425 0.785 4.9725 1.445 5.3125 2.125 C4.9825 2.785 4.6525 3.445 4.3125 4.125 C5.199375 3.465 6.08625 2.805 7 2.125 C12.345796 -1.01178939 18.32387726 -0.19919612 24.3125 0.125 C24.3125 0.785 24.3125 1.445 24.3125 2.125 C25.3025 1.795 26.2925 1.465 27.3125 1.125 C28.125 3.125 28.125 3.125 28.3125 6.125 C26.97232736 9.02513359 25.37100604 11.67786745 23.3125 14.125 C22.6525 14.125 21.9925 14.125 21.3125 14.125 C21.498125 14.929375 21.68375 15.73375 21.875 16.5625 C22.40860028 20.90753084 21.9350704 24.81489724 21.3125 29.125 C20.9825 29.125 20.6525 29.125 20.3125 29.125 C20.23902344 27.76955078 20.23902344 27.76955078 20.1640625 26.38671875 C20.08929688 25.20722656 20.01453125 24.02773437 19.9375 22.8125 C19.86789063 21.64074219 19.79828125 20.46898437 19.7265625 19.26171875 C19.52636253 15.96800113 19.52636253 15.96800113 17.3125 13.125 C15.33502878 12.76202064 15.33502878 12.76202064 13.1875 12.9375 C11.90875 12.999375 10.63 13.06125 9.3125 13.125 C6.08993984 20.79210954 6.2774915 26.87954772 7.16210938 35.015625 C7.70578609 41.44178585 7.70578609 41.44178585 5.55859375 45.171875 C2.49005495 47.84016961 0.34009061 48.125 -3.6875 48.125 C-5.87524414 47.22680664 -5.87524414 47.22680664 -7.6875 45.125 C-8.29453407 41.92118368 -8.22335453 38.74808384 -8.18359375 35.49609375 C-8.18504898 34.55065201 -8.18650421 33.60521027 -8.18800354 32.63111877 C-8.1863437 30.63303545 -8.17477297 28.63493946 -8.15405273 26.63696289 C-8.12507633 23.57057715 -8.13344606 20.50591704 -8.14648438 17.43945312 C-8.14024784 15.49999156 -8.13185757 13.56053547 -8.12109375 11.62109375 C-8.12402939 10.70025497 -8.12696503 9.7794162 -8.12998962 8.83067322 C-8.11730545 7.97961502 -8.10462128 7.12855682 -8.09155273 6.25170898 C-8.08614975 5.50130844 -8.08074677 4.7509079 -8.07518005 3.97776794 C-7.19221989 -0.24200111 -3.5439786 -0.10272402 0 0 Z " fill="#6975E7" transform="translate(180.6875,163.875)"/>
<path d="M0 0 C2.6015625 -0.29296875 2.6015625 -0.29296875 5.625 -0.1875 C7.12933594 -0.14689453 7.12933594 -0.14689453 8.6640625 -0.10546875 C9.43492187 -0.07066406 10.20578125 -0.03585938 11 0 C13.03054236 5.79370966 13.19150735 10.71507576 12.8125 16.8125 C12.76061523 17.6988916 12.70873047 18.5852832 12.65527344 19.49853516 C12.02572084 28.64724731 10.9378812 36.52464421 4 43 C-2.1004141 46.77934021 -7.76712492 48.61295552 -15 48 C-17.89254538 46.99763279 -19.48009627 45.91512684 -22 44 C-23.0625 40.875 -23.0625 40.875 -23 38 C-22.34 37.34 -21.68 36.68 -21 36 C-20.67 36.66 -20.34 37.32 -20 38 C-18.02 38 -16.04 38 -14 38 C-14 37.01 -14 36.02 -14 35 C-13.37351563 34.89042969 -12.74703125 34.78085938 -12.1015625 34.66796875 C-11.28429687 34.50941406 -10.46703125 34.35085937 -9.625 34.1875 C-8.81289062 34.03667969 -8.00078125 33.88585937 -7.1640625 33.73046875 C-4.64179359 33.12455058 -4.64179359 33.12455058 -3 30 C-2.66374257 27.14199063 -2.66374257 27.14199063 -2.65625 23.90625 C-2.62660156 22.71128906 -2.59695312 21.51632813 -2.56640625 20.28515625 C-2.54449219 19.03605469 -2.52257812 17.78695312 -2.5 16.5 C-2.45668562 14.03108058 -2.40499748 11.56228965 -2.34375 9.09375 C-2.32505859 7.99740234 -2.30636719 6.90105469 -2.28710938 5.77148438 C-2 3 -2 3 0 0 Z " fill="#617CE4" transform="translate(156,165)"/>
<path d="M0 0 C2.5 2.0625 2.5 2.0625 5 5 C5.3125 8.8125 5.3125 8.8125 5 12 C6.32 12 7.64 12 9 12 C9.25544312 16.22800871 9.47475055 20.45714506 9.6875 24.6875 C9.76033203 25.88568359 9.83316406 27.08386719 9.90820312 28.31835938 C9.96298828 29.47529297 10.01777344 30.63222656 10.07421875 31.82421875 C10.16062622 33.41882935 10.16062622 33.41882935 10.2487793 35.0456543 C9.95735181 38.5064629 9.13949005 40.28203826 7 43 C3.52055002 43.9489409 1.14683703 44.37194714 -2.3125 43.25 C-4 42 -4 42 -6 39 C-6.8096095 32.16215663 -5.59683323 25.29068283 -4.4375 18.5625 C-4.13795081 16.81491728 -3.84468855 15.06624192 -3.55859375 13.31640625 C-3.42767334 12.55787354 -3.29675293 11.79934082 -3.16186523 11.01782227 C-2.8511667 8.79471191 -2.8511667 8.79471191 -4 6 C-3.34 5.67 -2.68 5.34 -2 5 C-1.27840576 3.35636866 -0.60648579 1.68949614 0 0 Z " fill="#7F62E6" transform="translate(234,168)"/>
<path d="M0 0 C5.41082539 2.3957876 9.45428785 5.91482054 11.64453125 11.546875 C11.76953125 13.296875 11.76953125 13.296875 10.76953125 15.296875 C9.44953125 15.296875 8.12953125 15.296875 6.76953125 15.296875 C6.68703125 14.224375 6.60453125 13.151875 6.51953125 12.046875 C5.71476223 8.0230299 4.89223251 6.81518247 1.76953125 4.296875 C1.43953125 5.946875 1.10953125 7.596875 0.76953125 9.296875 C-0.22046875 9.296875 -1.21046875 9.296875 -2.23046875 9.296875 C-1.87984375 9.85375 -1.52921875 10.410625 -1.16796875 10.984375 C-0.01200882 13.83574283 -0.42079437 15.38204722 -1.23046875 18.296875 C-3.23046875 17.296875 -3.23046875 17.296875 -4.41796875 14.734375 C-6.08568082 11.91036192 -6.08568082 11.91036192 -9.73046875 11.671875 C-13.24275631 11.93626327 -13.24275631 11.93626327 -14.94921875 14.15234375 C-17.18194789 19.63206007 -16.34408594 25.36554107 -16.11328125 31.19335938 C-15.97961179 36.67009431 -15.98634347 40.61842582 -19.23046875 45.296875 C-22.23046875 47.296875 -22.23046875 47.296875 -25.79296875 47.109375 C-29.23046875 46.296875 -29.23046875 46.296875 -31.23046875 43.296875 C-28.26046875 43.956875 -25.29046875 44.616875 -22.23046875 45.296875 C-22.72546875 43.811875 -22.72546875 43.811875 -23.23046875 42.296875 C-21.91046875 42.296875 -20.59046875 42.296875 -19.23046875 42.296875 C-19.24094238 41.59602783 -19.25141602 40.89518066 -19.26220703 40.1730957 C-19.30388543 36.98522555 -19.3298326 33.79741285 -19.35546875 30.609375 C-19.37222656 29.50658203 -19.38898438 28.40378906 -19.40625 27.26757812 C-19.41269531 26.20087891 -19.41914063 25.13417969 -19.42578125 24.03515625 C-19.43625488 23.05587158 -19.44672852 22.07658691 -19.45751953 21.06762695 C-19.21505764 18.1088098 -18.42628827 15.99645896 -17.23046875 13.296875 C-16.88226834 11.63325083 -16.54642383 9.96692329 -16.23046875 8.296875 C-15.90046875 7.636875 -15.57046875 6.976875 -15.23046875 6.296875 C-18.84039254 6.95272689 -18.84039254 6.95272689 -22.23046875 8.296875 C-21.57046875 9.616875 -20.91046875 10.936875 -20.23046875 12.296875 C-20.80796875 12.090625 -21.38546875 11.884375 -21.98046875 11.671875 C-24.75014442 11.21026239 -25.87608142 11.86742555 -28.23046875 13.296875 C-26.56380208 9.96354167 -24.89713542 6.63020833 -23.23046875 3.296875 C-22.90046875 3.956875 -22.57046875 4.616875 -22.23046875 5.296875 C-21.62460938 4.86375 -21.01875 4.430625 -20.39453125 3.984375 C-13.53475192 -0.57473988 -8.06282426 -2.54169591 0 0 Z " fill="#7865E4" transform="translate(232.23046875,164.703125)"/>
<path d="M0 0 C2.0625 0.4375 2.0625 0.4375 4 1 C4 1.66 4 2.32 4 3 C0.53846154 6 0.53846154 6 -2 6 C-2.103125 7.27875 -2.20625 8.5575 -2.3125 9.875 C-2.48828125 12.0546875 -2.48828125 12.0546875 -3 14 C-6.35880365 16.23920243 -7.51576604 16.24603334 -11.4375 16.1875 C-12.38496094 16.18105469 -13.33242187 16.17460937 -14.30859375 16.16796875 C-16.71011006 16.01809182 -18.68793306 15.6089206 -21 15 C-23.58333087 14.71028065 -26.16732107 14.49648371 -28.7578125 14.28125 C-31 14 -31 14 -33 13 C-32.67 12.01 -32.34 11.02 -32 10 C-29.69 10 -27.38 10 -25 10 C-25 9.34 -25 8.68 -25 8 C-25.62648438 8.03480469 -26.25296875 8.06960937 -26.8984375 8.10546875 C-27.71570313 8.13253906 -28.53296875 8.15960938 -29.375 8.1875 C-30.18710938 8.22230469 -30.99921875 8.25710937 -31.8359375 8.29296875 C-32.55007812 8.19628906 -33.26421875 8.09960938 -34 8 C-34.66 7.01 -35.32 6.02 -36 5 C-35.25838623 4.98018066 -34.51677246 4.96036133 -33.75268555 4.93994141 C-30.39726166 4.84477072 -27.04246714 4.73505906 -23.6875 4.625 C-22.52025391 4.5940625 -21.35300781 4.563125 -20.15039062 4.53125 C-18.47299805 4.47324219 -18.47299805 4.47324219 -16.76171875 4.4140625 C-15.73006592 4.3826416 -14.69841309 4.3512207 -13.63549805 4.31884766 C-10.77156764 4.17325371 -10.77156764 4.17325371 -8 2 C-5.67085177 1.63858045 -3.33746522 1.30300475 -1 1 C-0.67 0.67 -0.34 0.34 0 0 Z " fill="#4993E9" transform="translate(121,196)"/>
<path d="M0 0 C1.875 1.5 1.875 1.5 3 3 C1.9328367 7.98009541 0.01274681 10.60068716 -3.8828125 13.671875 C-10.56516513 17.86375672 -17.38548349 18.68173371 -25 17 C-25.99 16.67 -26.98 16.34 -28 16 C-28 15.34 -28 14.68 -28 14 C-27.030625 13.71125 -26.06125 13.4225 -25.0625 13.125 C-21.89335797 12.35785318 -21.89335797 12.35785318 -21 10 C-20.34 10 -19.68 10 -19 10 C-19 9.01 -19 8.02 -19 7 C-20.32 6.67 -21.64 6.34 -23 6 C-22.03900391 5.85304687 -22.03900391 5.85304687 -21.05859375 5.703125 C-16.71799696 4.95273867 -13.00374939 4.25378051 -9.25 1.875 C-5.72944885 -0.1560872 -3.98545584 -0.63404979 0 0 Z " fill="#9256E4" transform="translate(290,195)"/>
<path d="M0 0 C2.625 2.125 2.625 2.125 4 4 C4 4.66 4 5.32 4 6 C2.35 5.34 0.7 4.68 -1 4 C-1 3.01 -1 2.02 -1 1 C-3.31 2.32 -5.62 3.64 -8 5 C-7.01 6.65 -6.02 8.3 -5 10 C-5.99 11.32 -6.98 12.64 -8 14 C-7.01 14.66 -6.02 15.32 -5 16 C-5.66386719 15.98839844 -6.32773437 15.97679687 -7.01171875 15.96484375 C-11.52363434 15.91873658 -15.5788973 16.06924154 -20 17 C-22.72005877 17.18557906 -25.26077375 17.13471604 -28 17 C-28.66 16.34 -29.32 15.68 -30 15 C-29.67 14.34 -29.34 13.68 -29 13 C-28.01 13 -27.02 13 -26 13 C-26 11.35 -26 9.7 -26 8 C-24.68 8 -23.36 8 -22 8 C-21.20046862 4.71303767 -20.90341064 3.28976808 -22 0 C-24.00016466 -1.20882096 -24.00016466 -1.20882096 -26 -2 C-16.95780765 -5.80723889 -8.48965249 -4.55466758 0 0 Z M-21.4375 8.8125 C-23.2906191 10.95882896 -23.2906191 10.95882896 -23 14 C-15.25661364 14.38958535 -15.25661364 14.38958535 -8 12 C-9.52791204 9.35832772 -9.52791204 9.35832772 -12 7 C-16.10300985 6.3405877 -18.06845905 6.3073157 -21.4375 8.8125 Z " fill="#865ADC" transform="translate(286,168)"/>
<path d="M0 0 C0 0.99 0 1.98 0 3 C1.65 3.66 3.3 4.32 5 5 C4.67 6.65 4.34 8.3 4 10 C4.66 10 5.32 10 6 10 C6.33 13.3 6.66 16.6 7 20 C3.04900072 20.0246985 -0.90196874 20.04285923 -4.85302734 20.05493164 C-6.85906551 20.06244036 -8.86508202 20.0751447 -10.87109375 20.08789062 C-12.75634766 20.09272461 -12.75634766 20.09272461 -14.6796875 20.09765625 C-16.42354736 20.10551147 -16.42354736 20.10551147 -18.20263672 20.11352539 C-21 20 -21 20 -23 19 C-22.67 17.68 -22.34 16.36 -22 15 C-19.69 15.33 -17.38 15.66 -15 16 C-14.67 15.34 -14.34 14.68 -14 14 C-12.02 14 -10.04 14 -8 14 C-7.01 12.02 -6.02 10.04 -5 8 C-5.99 6.68 -6.98 5.36 -8 4 C-2.25 0 -2.25 0 0 0 Z " fill="#9252EA" transform="translate(285,169)"/>
<path d="M0 0 C2.6875 0.3125 2.6875 0.3125 5 1 C4.67 2.32 4.34 3.64 4 5 C3.34 4.67 2.68 4.34 2 4 C1.45627049 7.05847848 1 9.88772805 1 13 C-1 15 -1 15 -3.625 15.125 C-4.40875 15.08375 -5.1925 15.0425 -6 15 C-6 15.99 -6 16.98 -6 18 C-8.39381092 18.41854053 -10.78715164 18.81014291 -13.1875 19.1875 C-13.86103516 19.30802734 -14.53457031 19.42855469 -15.22851562 19.55273438 C-18.63735966 20.06821811 -20.73600578 20.11334152 -23.9296875 18.7421875 C-26 17 -26 17 -26.9375 13.9375 C-26.958125 12.968125 -26.97875 11.99875 -27 11 C-26.34 10.34 -25.68 9.68 -25 9 C-24.67 9.66 -24.34 10.32 -24 11 C-22.02 11 -20.04 11 -18 11 C-18 10.01 -18 9.02 -18 8 C-16.80375 8.04125 -15.6075 8.0825 -14.375 8.125 C-10.55932391 8.13850682 -7.58983265 7.33575168 -4 6 C-3.01 6 -2.02 6 -1 6 C-1 5.34 -1 4.68 -1 4 C-1.66 3.67 -2.32 3.34 -3 3 C-1.8125 1.4375 -1.8125 1.4375 0 0 Z " fill="#5E82E9" transform="translate(160,192)"/>
<path d="M0 0 C0.66 0.33 1.32 0.66 2 1 C0.59099426 5.48320008 -1.67434824 7.75546169 -5 11 C-5.8353125 12.3921875 -5.8353125 12.3921875 -6.6875 13.8125 C-7.120625 14.534375 -7.55375 15.25625 -8 16 C-8.66 16 -9.32 16 -10 16 C-10 16.66 -10 17.32 -10 18 C-10.66 18 -11.32 18 -12 18 C-12 18.99 -12 19.98 -12 21 C-12.66 21 -13.32 21 -14 21 C-13.505 21.391875 -13.01 21.78375 -12.5 22.1875 C-10.54406857 24.55091715 -10.75792027 26.01435003 -11 29 C-10.34 29.33 -9.68 29.66 -9 30 C-9.66 31.98 -10.32 33.96 -11 36 C-10.05898437 35.91621094 -9.11796875 35.83242187 -8.1484375 35.74609375 C-6.90320313 35.64425781 -5.65796875 35.54242188 -4.375 35.4375 C-3.14523438 35.33308594 -1.91546875 35.22867188 -0.6484375 35.12109375 C2.78599211 35.00710305 5.63452991 35.39775798 9 36 C11.29083289 36.06522873 13.58335794 36.0858841 15.875 36.0625 C17.02742188 36.05347656 18.17984375 36.04445312 19.3671875 36.03515625 C20.67042969 36.01775391 20.67042969 36.01775391 22 36 C22 36.33 22 36.66 22 37 C14.39794868 38.76279451 7.02848366 39.21728006 -0.75 39.25 C-2.07970825 39.26353516 -2.07970825 39.26353516 -3.4362793 39.27734375 C-8.9437564 39.25262114 -13.76139921 38.76186125 -19 37 C-21.20948381 33.68577428 -21.31488601 32.11209476 -20.70849609 28.23828125 C-19.30867751 23.81597359 -16.25026314 20.50974352 -13.3125 17 C-12.07883479 15.47964708 -10.84575724 13.95881712 -9.61328125 12.4375 C-9.01209473 11.7053125 -8.4109082 10.973125 -7.79150391 10.21875 C-5.09859694 6.88362619 -2.54105381 3.45155401 0 0 Z " fill="#349FEA" transform="translate(91,174)"/>
<path d="M0 0 C1.32 0 2.64 0 4 0 C4.33 1.65 4.66 3.3 5 5 C4.01 5.495 4.01 5.495 3 6 C3 6.99 3 7.98 3 9 C3.66 9 4.32 9 5 9 C5 9.66 5 10.32 5 11 C4.34 11 3.68 11 3 11 C2.67 11.99 2.34 12.98 2 14 C1.34 13.67 0.68 13.34 0 13 C0 13.66 0 14.32 0 15 C0.66 15 1.32 15 2 15 C2 17 2 17 0.625 18.4375 C0.08875 18.953125 -0.4475 19.46875 -1 20 C-1.66 20.99 -2.32 21.98 -3 23 C-1.41727399 24.58272601 0.38034003 24.34735747 2.5625 24.5625 C3.38878906 24.64628906 4.21507813 24.73007813 5.06640625 24.81640625 C6.02353516 24.90728516 6.02353516 24.90728516 7 25 C7 25.66 7 26.32 7 27 C5.865625 27.12375 4.73125 27.2475 3.5625 27.375 C1.7990625 27.684375 1.7990625 27.684375 0 28 C-0.33 28.66 -0.66 29.32 -1 30 C-0.34 30.33 0.32 30.66 1 31 C-2.3 31 -5.6 31 -9 31 C-9 28.66666667 -9 26.33333333 -9 24 C-9.309375 23.38125 -9.61875 22.7625 -9.9375 22.125 C-10.96124037 20.07751925 -11.52230045 18.22926456 -12 16 C-11.34 16 -10.68 16 -10 16 C-10 15.01 -10 14.02 -10 13 C-9.34 13 -8.68 13 -8 13 C-8 12.34 -8 11.68 -8 11 C-7.34 10.67 -6.68 10.34 -6 10 C-4.97821857 8.27574383 -3.95869907 6.54917407 -3 4.7890625 C-2.08092727 3.14478395 -1.04489184 1.56733776 0 0 Z " fill="#3C9BEC" transform="translate(89,179)"/>
<path d="M0 0 C0.82780975 -0.0127597 1.65561951 -0.02551941 2.5085144 -0.03866577 C3.85225632 -0.04200424 3.85225632 -0.04200424 5.22314453 -0.04541016 C6.14306183 -0.05206696 7.06297913 -0.05872375 8.01077271 -0.06558228 C9.95930987 -0.07571897 11.90788181 -0.08039898 13.85644531 -0.08007812 C16.83733467 -0.08444537 19.81673669 -0.12073734 22.79736328 -0.15869141 C24.68928529 -0.16456053 26.58121435 -0.16852928 28.47314453 -0.17041016 C29.81081375 -0.19196671 29.81081375 -0.19196671 31.17550659 -0.21395874 C37.33852334 -0.16849417 37.33852334 -0.16849417 40.53613281 2.11621094 C42.75009471 5.44800287 42.63617006 7.35924915 41.98095703 11.29052734 C40.32137383 14.24646421 38.18205854 16.72257559 35.98095703 19.29052734 C34.41374304 21.16158895 32.85144532 23.03677676 31.29345703 24.91552734 C30.54708984 25.79466797 29.80072266 26.67380859 29.03173828 27.57958984 C26.92878024 30.35950009 25.43973164 33.13216454 23.98095703 36.29052734 C23.65095703 36.29052734 23.32095703 36.29052734 22.98095703 36.29052734 C22.65095703 33.98052734 22.32095703 31.67052734 21.98095703 29.29052734 C23.30095703 28.96052734 24.62095703 28.63052734 25.98095703 28.29052734 C25.98095703 27.63052734 25.98095703 26.97052734 25.98095703 26.29052734 C27.48095703 24.66552734 27.48095703 24.66552734 28.98095703 23.29052734 C28.32095703 22.96052734 27.66095703 22.63052734 26.98095703 22.29052734 C28.54230561 18.07488618 31.59967499 16.09627202 34.98095703 13.29052734 C35.31095703 12.30052734 35.64095703 11.31052734 35.98095703 10.29052734 C35.32095703 9.96052734 34.66095703 9.63052734 33.98095703 9.29052734 C34.31095703 8.30052734 34.64095703 7.31052734 34.98095703 6.29052734 C35.31095703 4.97052734 35.64095703 3.65052734 35.98095703 2.29052734 C16.67595703 1.79552734 16.67595703 1.79552734 -3.01904297 1.29052734 C-2.35904297 3.27052734 -1.69904297 5.25052734 -1.01904297 7.29052734 C-2.33904297 7.29052734 -3.65904297 7.29052734 -5.01904297 7.29052734 C-5.01904297 7.95052734 -5.01904297 8.61052734 -5.01904297 9.29052734 C-5.67904297 9.29052734 -6.33904297 9.29052734 -7.01904297 9.29052734 C-5.99372068 0.06262677 -5.99372068 0.06262677 0 0 Z " fill="#5198EC" transform="translate(78.01904296875,147.70947265625)"/>
<path d="M0 0 C0.66 0.66 1.32 1.32 2 2 C1.67 2.99 1.34 3.98 1 5 C1.66 5.33 2.32 5.66 3 6 C2.67 6.66 2.34 7.32 2 8 C3.98 7.67 5.96 7.34 8 7 C7.33549729 14.19350555 3.57974332 17.62061895 -1 23 C5.93 23.33 12.86 23.66 20 24 C19.67 24.99 19.34 25.98 19 27 C10.75 27 2.5 27 -6 27 C-5.34 25.35 -4.68 23.7 -4 22 C-3.34 22 -2.68 22 -2 22 C-2 21.34 -2 20.68 -2 20 C-2.66 20 -3.32 20 -4 20 C-4 19.34 -4 18.68 -4 18 C-3.34 18 -2.68 18 -2 18 C-1.67 17.34 -1.34 16.68 -1 16 C-0.34 16 0.32 16 1 16 C1 15.34 1 14.68 1 14 C0.34 14 -0.32 14 -1 14 C-1.33 12.35 -1.66 10.7 -2 9 C-1.34 9 -0.68 9 0 9 C-0.37125 8.2575 -0.7425 7.515 -1.125 6.75 C-2 4 -2 4 -1.125 1.6875 C-0.75375 1.130625 -0.3825 0.57375 0 0 Z " fill="#439AE8" transform="translate(93,174)"/>
<path d="M0 0 C2.77835177 3.16028153 3.48088224 5.45448507 3.8125 9.625 C3.90144531 10.58664063 3.99039063 11.54828125 4.08203125 12.5390625 C4 15 4 15 2 17 C-7.02491938 18.86479816 -16.82337863 18.0968225 -26 18 C-25.42547254 21.93075644 -25.42547254 21.93075644 -23 25 C-20.34462628 25.56520003 -17.70855287 25.73788198 -15 26 C-15 26.33 -15 26.66 -15 27 C-18.02772034 27.6662304 -20.89437986 28.11425358 -24 28 C-27.0625 25.9375 -27.0625 25.9375 -29 23 C-29.4375 19.8125 -29.4375 19.8125 -29 17 C-27 15 -27 15 -24.11083984 14.77294922 C-22.90637207 14.78342285 -21.7019043 14.79389648 -20.4609375 14.8046875 C-18.50800781 14.81435547 -18.50800781 14.81435547 -16.515625 14.82421875 C-15.13541405 14.84093071 -13.75520571 14.85786061 -12.375 14.875 C-10.98698548 14.88502994 -9.59896411 14.89415577 -8.2109375 14.90234375 C-4.80711974 14.92598137 -1.40364494 14.95893133 2 15 C1.84402344 14.44570312 1.68804687 13.89140625 1.52734375 13.3203125 C1.23537109 12.23363281 1.23537109 12.23363281 0.9375 11.125 C0.64166016 10.04605469 0.64166016 10.04605469 0.33984375 8.9453125 C0 7 0 7 1 5 C0.34 5 -0.32 5 -1 5 C-0.67 3.35 -0.34 1.7 0 0 Z " fill="#8658CE" transform="translate(290,174)"/>
<path d="M0 0 C4.875 3.625 4.875 3.625 6 7 C4.5625 9.1875 4.5625 9.1875 3 11 C3.99 11.66 4.98 12.32 6 13 C5.33613281 12.98839844 4.67226563 12.97679687 3.98828125 12.96484375 C-0.52363434 12.91873658 -4.5788973 13.06924154 -9 14 C-11.72005877 14.18557906 -14.26077375 14.13471604 -17 14 C-17.66 13.34 -18.32 12.68 -19 12 C-18.67 11.34 -18.34 10.68 -18 10 C-17.01 10 -16.02 10 -15 10 C-15 8.35 -15 6.7 -15 5 C-12.66666667 5 -10.33333333 5 -8 5 C-8.474375 5.433125 -8.94875 5.86625 -9.4375 6.3125 C-11.23686957 8.02309613 -11.23686957 8.02309613 -12 11 C-5.07 10.01 -5.07 10.01 2 9 C-0.5162737 4.75425988 -0.5162737 4.75425988 -4.1875 4.25 C-5.115625 4.1675 -6.04375 4.085 -7 4 C-7 3.67 -7 3.34 -7 3 C-5.5459375 2.5359375 -5.5459375 2.5359375 -4.0625 2.0625 C-1.15934208 1.30476658 -1.15934208 1.30476658 0 0 Z " fill="#805ADE" transform="translate(275,171)"/>
<path d="M0 0 C1.71802382 3.43604765 1.1196618 7.38438896 1.09765625 11.1640625 C1.09553383 12.52487442 1.09553383 12.52487442 1.09336853 13.91317749 C1.08776096 16.81715155 1.07520718 19.72104915 1.0625 22.625 C1.05748598 24.59114472 1.0529229 26.55729065 1.04882812 28.5234375 C1.03778906 33.3489879 1.02051935 38.17448097 1 43 C1.99 43.33 2.98 43.66 4 44 C4 44.66 4 45.32 4 46 C4.99 46.33 5.98 46.66 7 47 C0.25 46.25 0.25 46.25 -2 44 C-2.24050903 42.12704468 -2.24050903 42.12704468 -2.22705078 39.82568359 C-2.22689972 38.96494232 -2.22674866 38.10420105 -2.22659302 37.21737671 C-2.21627045 36.28712677 -2.20594788 35.35687683 -2.1953125 34.3984375 C-2.1924826 33.44683746 -2.18965271 32.49523743 -2.18673706 31.51480103 C-2.17551989 28.46807408 -2.15041263 25.42163846 -2.125 22.375 C-2.11497218 20.31250424 -2.10584599 18.25000388 -2.09765625 16.1875 C-2.07557554 11.12488733 -2.0410353 6.0624931 -2 1 C-1.34 0.67 -0.68 0.34 0 0 Z " fill="#687ECB" transform="translate(175,165)"/>
<path d="M0 0 C0.82780975 -0.0127597 1.65561951 -0.02551941 2.5085144 -0.03866577 C3.85225632 -0.04200424 3.85225632 -0.04200424 5.22314453 -0.04541016 C6.14306183 -0.05206696 7.06297913 -0.05872375 8.01077271 -0.06558228 C9.95930987 -0.07571897 11.90788181 -0.08039898 13.85644531 -0.08007812 C16.83733467 -0.08444537 19.81673669 -0.12073734 22.79736328 -0.15869141 C24.68928529 -0.16456053 26.58121435 -0.16852928 28.47314453 -0.17041016 C29.81081375 -0.19196671 29.81081375 -0.19196671 31.17550659 -0.21395874 C37.32605798 -0.16858612 37.32605798 -0.16858612 40.55175781 2.09277344 C42.60545002 5.25084266 42.38969755 7.61186269 41.98095703 11.29052734 C41.32095703 11.95052734 40.66095703 12.61052734 39.98095703 13.29052734 C40.31095703 10.65052734 40.64095703 8.01052734 40.98095703 5.29052734 C39.33095703 5.62052734 37.68095703 5.95052734 35.98095703 6.29052734 C35.98095703 4.97052734 35.98095703 3.65052734 35.98095703 2.29052734 C16.67595703 1.79552734 16.67595703 1.79552734 -3.01904297 1.29052734 C-2.35904297 3.27052734 -1.69904297 5.25052734 -1.01904297 7.29052734 C-2.33904297 7.29052734 -3.65904297 7.29052734 -5.01904297 7.29052734 C-5.01904297 7.95052734 -5.01904297 8.61052734 -5.01904297 9.29052734 C-5.67904297 9.29052734 -6.33904297 9.29052734 -7.01904297 9.29052734 C-5.99372068 0.06262677 -5.99372068 0.06262677 0 0 Z " fill="#559BD6" transform="translate(78.01904296875,147.70947265625)"/>
<path d="M0 0 C0.33 0 0.66 0 1 0 C3.85749272 7.50091839 4.69039092 16.80128706 1.66796875 24.30859375 C0 27 0 27 -3 29 C-6.5625 28.8125 -6.5625 28.8125 -10 28 C-10.66 27.01 -11.32 26.02 -12 25 C-7.545 25.99 -7.545 25.99 -3 27 C-3.33 26.01 -3.66 25.02 -4 24 C-2.68 24 -1.36 24 0 24 C0 16.08 0 8.16 0 0 Z " fill="#7275DB" transform="translate(213,183)"/>
<path d="M0 0 C13.96454397 0.21042464 13.96454397 0.21042464 17.875 3.4375 C20 6 20 6 20 8 C18.35 7.34 16.7 6.68 15 6 C15 5.01 15 4.02 15 3 C13.9275 3.66 12.855 4.32 11.75 5 C8.09738121 7.24776541 5.25446614 7 1 7 C0.67 4.69 0.34 2.38 0 0 Z " fill="#9251E6" transform="translate(270,166)"/>
<path d="M0 0 C0.66 0.33 1.32 0.66 2 1 C0.59099426 5.48320008 -1.67434824 7.75546169 -5 11 C-5.8353125 12.3921875 -5.8353125 12.3921875 -6.6875 13.8125 C-7.120625 14.534375 -7.55375 15.25625 -8 16 C-8.66 16 -9.32 16 -10 16 C-10 16.66 -10 17.32 -10 18 C-10.66 18 -11.32 18 -12 18 C-12 18.99 -12 19.98 -12 21 C-12.99 21.66 -13.98 22.32 -15 23 C-16.06246527 24.96752828 -17.07137808 26.96587579 -18 29 C-18.66 29 -19.32 29 -20 29 C-19.3862577 25.30265471 -17.78481899 23.09380988 -15.5078125 20.15625 C-14.80269531 19.23972656 -14.09757812 18.32320312 -13.37109375 17.37890625 C-12.62988281 16.42886719 -11.88867188 15.47882813 -11.125 14.5 C-10.39152344 13.54996094 -9.65804687 12.59992188 -8.90234375 11.62109375 C-7.53571378 9.85119593 -6.16637048 8.08338755 -4.79345703 6.31835938 C-3.17536624 4.22669178 -1.58040617 2.1202207 0 0 Z " fill="#489AD5" transform="translate(91,174)"/>
<path d="M0 0 C1.65 0.33 3.3 0.66 5 1 C5.75 2.625 5.75 2.625 6 5 C3.67309971 9.29581593 1.0278338 12.24411372 -3 15 C-3.66 15 -4.32 15 -5 15 C-4.67 14.01 -4.34 13.02 -4 12 C-3.34 12 -2.68 12 -2 12 C-2.33 10.02 -2.66 8.04 -3 6 C-2.01 5.34 -1.02 4.68 0 4 C0 2.68 0 1.36 0 0 Z " fill="#8C50E9" transform="translate(287,195)"/>
<path d="M0 0 C6.27 0 12.54 0 19 0 C18.67 0.99 18.34 1.98 18 3 C9.75 3 1.5 3 -7 3 C-6.67 2.34 -6.34 1.68 -6 1 C-3.03 1.495 -3.03 1.495 0 2 C0 1.34 0 0.68 0 0 Z " fill="#53B1EB" transform="translate(94,198)"/>
<path d="M0 0 C3.11799003 0.75035741 6.18070403 1.63363411 9.25 2.5625 C10.14203125 2.83191406 11.0340625 3.10132813 11.953125 3.37890625 C12.62859375 3.58386719 13.3040625 3.78882813 14 4 C13.67 4.99 13.34 5.98 13 7 C7.49633208 7.32374517 3.56327794 7.53286034 -1 4 C-0.67 2.68 -0.34 1.36 0 0 Z " fill="#3A9FE7" transform="translate(73,155)"/>
<path d="M0 0 C0.99 0.495 0.99 0.495 2 1 C2 1.66 2 2.32 2 3 C2.66 3 3.32 3 4 3 C4.33 4.65 4.66 6.3 5 8 C5.65073486 7.98952637 6.30146973 7.97905273 6.97192383 7.96826172 C9.9187433 7.92670165 12.86550111 7.90067392 15.8125 7.875 C16.83666016 7.85824219 17.86082031 7.84148437 18.91601562 7.82421875 C19.89892578 7.81777344 20.88183594 7.81132812 21.89453125 7.8046875 C22.80050049 7.79421387 23.70646973 7.78374023 24.63989258 7.77294922 C27 8 27 8 30 10 C26.83341337 10.05880804 23.66697007 10.09386406 20.5 10.125 C19.613125 10.14175781 18.72625 10.15851563 17.8125 10.17578125 C12.19022381 10.21712152 7.34499454 9.81777968 2 8 C-0.1519437 4.77208445 -0.20086443 3.71599191 0 0 Z " fill="#4A9DC6" transform="translate(70,203)"/>
<path d="M0 0 C0.66 0.33 1.32 0.66 2 1 C2.4375 3.125 2.4375 3.125 2 6 C0.35965783 7.72214401 -1.38217198 9.13046015 -3.2734375 10.5703125 C-5.25560171 12.07239724 -5.25560171 12.07239724 -7 15 C-8.32 14.67 -9.64 14.34 -11 14 C-10.28972656 13.15695313 -9.57945313 12.31390625 -8.84765625 11.4453125 C-7.91916721 10.3386286 -6.99078746 9.23185299 -6.0625 8.125 C-5.59392578 7.56941406 -5.12535156 7.01382813 -4.64257812 6.44140625 C-2.05933481 3.39938165 -2.05933481 3.39938165 0 0 Z " fill="#558CDD" transform="translate(123,166)"/>
<path d="M0 0 C0.66 0 1.32 0 2 0 C2.33 0.99 2.66 1.98 3 3 C4.65 3 6.3 3 8 3 C6.90648447 6.17119503 5.9873012 7.00783543 3.0625 8.8125 C0 10 0 10 -3 9 C-2.34 9 -1.68 9 -1 9 C-1.020625 7.700625 -1.04125 6.40125 -1.0625 5.0625 C-1.08399454 3.70834367 -1.07148199 2.35243917 -1 1 C-0.67 0.67 -0.34 0.34 0 0 Z " fill="#548DE2" transform="translate(119,201)"/>
<path d="M0 0 C3.27287218 3.27287218 2.59762748 7.4750025 2.8125 11.9375 C2.87630859 12.85724609 2.94011719 13.77699219 3.00585938 14.72460938 C3.05162109 15.60826172 3.09738281 16.49191406 3.14453125 17.40234375 C3.21184448 18.61651978 3.21184448 18.61651978 3.28051758 19.85522461 C3 22 3 22 0 25 C0 16.75 0 8.5 0 0 Z " fill="#5D70CC" transform="translate(185,184)"/>
<path d="M0 0 C0.66 0.66 1.32 1.32 2 2 C-2.43605304 8.09957293 -7.53419297 11.50390507 -15 13 C-17.33300933 13.03888349 -19.66709801 13.0448635 -22 13 C-22.33 12.34 -22.66 11.68 -23 11 C-18.38 10.67 -13.76 10.34 -9 10 C-9 9.01 -9 8.02 -9 7 C-7.6078125 6.6596875 -7.6078125 6.6596875 -6.1875 6.3125 C-2.49280817 4.7911563 -1.67517239 3.53647504 0 0 Z " fill="#6786CE" transform="translate(163,200)"/>
<path d="M0 0 C1.58206057 0.00667536 3.16410534 0.0186375 4.74609375 0.03515625 C5.55240234 0.03966797 6.35871094 0.04417969 7.18945312 0.04882812 C9.18753131 0.06065107 11.18557158 0.07858711 13.18359375 0.09765625 C13.18359375 0.42765625 13.18359375 0.75765625 13.18359375 1.09765625 C8.23359375 1.42765625 3.28359375 1.75765625 -1.81640625 2.09765625 C-1.32488143 6.9589812 -1.32488143 6.9589812 1.18359375 9.09765625 C3.83896747 9.66285628 6.47504088 9.83553823 9.18359375 10.09765625 C9.18359375 10.42765625 9.18359375 10.75765625 9.18359375 11.09765625 C6.15587341 11.76388665 3.28921389 12.21190983 0.18359375 12.09765625 C-2.87890625 10.03515625 -2.87890625 10.03515625 -4.81640625 7.09765625 C-5.19140625 3.84765625 -5.19140625 3.84765625 -4.81640625 1.09765625 C-3.81640625 0.09765625 -3.81640625 0.09765625 0 0 Z " fill="#796FB0" transform="translate(265.81640625,189.90234375)"/>
<path d="M0 0 C4.875 3.625 4.875 3.625 6 7 C4.875 9.125 4.875 9.125 3 11 C0.3125 11.75 0.3125 11.75 -2 12 C-2 11.34 -2 10.68 -2 10 C-0.68 9.34 0.64 8.68 2 8 C0.02579865 5.47740939 -0.96745642 5.0070192 -4.1875 4.3125 C-5.5796875 4.1578125 -5.5796875 4.1578125 -7 4 C-7 3.67 -7 3.34 -7 3 C-5.5459375 2.5359375 -5.5459375 2.5359375 -4.0625 2.0625 C-1.15934208 1.30476658 -1.15934208 1.30476658 0 0 Z " fill="#8168CB" transform="translate(275,171)"/>
<path d="M0 0 C-0.75 1.9375 -0.75 1.9375 -2 4 C-3.32594105 4.36162029 -4.65938457 4.69728039 -6 5 C-6.33 5.99 -6.66 6.98 -7 8 C-8.32 8 -9.64 8 -11 8 C-10.9375 5.75 -10.9375 5.75 -10 3 C-6.76407379 0.3214184 -4.19006351 -1.39668784 0 0 Z " fill="#7F60D0" transform="translate(261,168)"/>
<path d="M0 0 C2 3 2 3 2 5 C2.99 4.34 3.98 3.68 5 3 C7.0625 3.125 7.0625 3.125 9 4 C10.25 6.0625 10.25 6.0625 11 8 C7.09397933 8 4.45892635 7.72946317 1 6 C1 5.34 1 4.68 1 4 C-0.32 3.67 -1.64 3.34 -3 3 C-2.01 2.01 -1.02 1.02 0 0 Z " fill="#995BEE" transform="translate(280,179)"/>
<path d="M0 0 C-1.66302124 3.32604248 -4.62976481 3.80042476 -8 5 C-10.3125 4.625 -10.3125 4.625 -12 4 C-12.99 4.495 -12.99 4.495 -14 5 C-14.66 4.34 -15.32 3.68 -16 3 C-10.62669111 -0.39366878 -6.13053511 -0.32712342 0 0 Z " fill="#7B72DE" transform="translate(230,164)"/>
<path d="M0 0 C5.19585122 0.57307183 10.43583083 0.36558664 15.65625 0.29296875 C15.65625 0.62296875 15.65625 0.95296875 15.65625 1.29296875 C13.61669851 1.65911969 11.57446752 2.01036154 9.53125 2.35546875 C8.39429687 2.55269531 7.25734375 2.74992188 6.0859375 2.953125 C2.64875874 3.29371105 0.02542235 2.95215465 -3.34375 2.29296875 C-4.96769748 2.23089125 -6.59380297 2.20584834 -8.21875 2.23046875 C-9.39050781 2.24400391 -9.39050781 2.24400391 -10.5859375 2.2578125 C-11.45605469 2.27521484 -11.45605469 2.27521484 -12.34375 2.29296875 C-12.34375 1.96296875 -12.34375 1.63296875 -12.34375 1.29296875 C-7.80801298 -0.68414739 -4.73258601 -0.68881817 0 0 Z " fill="#369CDE" transform="translate(97.34375,209.70703125)"/>
<path d="M0 0 C2.97 0.495 2.97 0.495 6 1 C5.43628586 4.26954202 4.50037734 5.82575883 2 8 C3.65 8 5.3 8 7 8 C7 8.33 7 8.66 7 9 C4.125 9.1875 4.125 9.1875 1 9 C-1 6 -1 6 -0.625 2.8125 C-0.41875 1.884375 -0.2125 0.95625 0 0 Z " fill="#5590DB" transform="translate(111,181)"/>
<path d="M0 0 C0.33 0.66 0.66 1.32 1 2 C2.32 1.34 3.64 0.68 5 0 C5.33 0.99 5.66 1.98 6 3 C4.35 3.66 2.7 4.32 1 5 C1.66 6.32 2.32 7.64 3 9 C2.4225 8.79375 1.845 8.5875 1.25 8.375 C-1.51967567 7.91338739 -2.64561267 8.57055055 -5 10 C-3.33333333 6.66666667 -1.66666667 3.33333333 0 0 Z " fill="#6D6ADD" transform="translate(209,168)"/>
<path d="M0 0 C1.65 1.32 3.3 2.64 5 4 C2.3765992 6.91488977 -0.71816394 8.88503898 -4 11 C-4 5.95749572 -2.59750368 4.22094347 0 0 Z " fill="#4993DC" transform="translate(100,160)"/>
<path d="M0 0 C0.66 0.33 1.32 0.66 2 1 C0.8553125 2.299375 0.8553125 2.299375 -0.3125 3.625 C-2.75220073 6.53600655 -4.42998277 9.52943561 -6 13 C-6.33 13 -6.66 13 -7 13 C-7.33 10.69 -7.66 8.38 -8 6 C-6.68 5.67 -5.36 5.34 -4 5 C-4 4.34 -4 3.68 -4 3 C-2 1.375 -2 1.375 0 0 Z " fill="#5595CF" transform="translate(108,171)"/>
<path d="M0 0 C1.17949219 0.01804688 2.35898438 0.03609375 3.57421875 0.0546875 C4.92966797 0.08949219 4.92966797 0.08949219 6.3125 0.125 C6.6425 1.115 6.9725 2.105 7.3125 3.125 C6.31669922 2.99931641 6.31669922 2.99931641 5.30078125 2.87109375 C-1.23470848 2.07074958 -1.23470848 2.07074958 -7.6875 3.125 C-7.6875 3.785 -7.6875 4.445 -7.6875 5.125 C-8.6775 5.125 -9.6675 5.125 -10.6875 5.125 C-8.80287675 -0.52886976 -5.28844685 -0.10472172 0 0 Z " fill="#7179D3" transform="translate(198.6875,163.875)"/>
<path d="M0 0 C12.82242991 10.46728972 12.82242991 10.46728972 15 17 C14.34 17 13.68 17 13 17 C13 16.34 13 15.68 13 15 C12.34 15 11.68 15 11 15 C10 13.33333333 9 11.66666667 8 10 C5.79591565 7.68571144 3.5256629 5.48941028 1.1875 3.3125 C0 2 0 2 0 0 Z " fill="#407BD0" transform="translate(133,167)"/>
<path d="M0 0 C2.8125 0.1875 2.8125 0.1875 6 1 C7.75 3.3125 7.75 3.3125 9 6 C9.391875 6.763125 9.78375 7.52625 10.1875 8.3125 C10.455625 8.869375 10.72375 9.42625 11 10 C10.34 10 9.68 10 9 10 C8.566875 9.360625 8.13375 8.72125 7.6875 8.0625 C5.59150148 5.50072404 4.21700528 5.34778436 1 5 C0.67 3.35 0.34 1.7 0 0 Z " fill="#4983EB" transform="translate(127,165)"/>
<path d="M0 0 C1.65 0 3.3 0 5 0 C3.02 0.99 3.02 0.99 1 2 C1 2.66 1 3.32 1 4 C1.99 4.33 2.98 4.66 4 5 C4.36923077 10.53846154 4.36923077 10.53846154 2.5 12.875 C1.7575 13.431875 1.7575 13.431875 1 14 C0.01 13.67 -0.98 13.34 -2 13 C-1.525625 12.608125 -1.05125 12.21625 -0.5625 11.8125 C1.35179633 9.59191626 1.61266988 7.86624291 2 5 C1.34 5 0.68 5 0 5 C0 3.35 0 1.7 0 0 Z " fill="#578CD7" transform="translate(119,184)"/>
<path d="M0 0 C2.375 0.3125 2.375 0.3125 5 1 C7.44897847 4.67346771 7.31537716 6.66356399 7 11 C6.34 11.66 5.68 12.32 5 13 C5.33 10.36 5.66 7.72 6 5 C4.35 5.33 2.7 5.66 1 6 C0.67 4.02 0.34 2.04 0 0 Z " fill="#488ACF" transform="translate(113,148)"/>
<path d="M0 0 C1.65 0 3.3 0 5 0 C4.4375 1.9375 4.4375 1.9375 3 4 C-0.375 5 -0.375 5 -4 5 C-6.4375 3.0625 -6.4375 3.0625 -8 1 C-3.545 1.99 -3.545 1.99 1 3 C0.67 2.01 0.34 1.02 0 0 Z " fill="#7676CF" transform="translate(209,207)"/>
<path d="M0 0 C0.66 0.33 1.32 0.66 2 1 C2 1.66 2 2.32 2 3 C2.66 3 3.32 3 4 3 C4 3.66 4 4.32 4 5 C4.66 5 5.32 5 6 5 C5.6875 7.375 5.6875 7.375 5 10 C4.01 10.66 3.02 11.32 2 12 C1.01 11.01 0.02 10.02 -1 9 C-0.01 8.67 0.98 8.34 2 8 C1.855625 7.4225 1.71125 6.845 1.5625 6.25 C1.04166667 4.16666667 0.52083333 2.08333333 0 0 Z " fill="#5DA0E1" transform="translate(142,179)"/>
<path d="M0 0 C2.97 0.495 2.97 0.495 6 1 C6 1.66 6 2.32 6 3 C6.66 3.33 7.32 3.66 8 4 C8 4.66 8 5.32 8 6 C5.36 5.34 2.72 4.68 0 4 C-0.33 4.99 -0.66 5.98 -1 7 C-0.67 4.69 -0.34 2.38 0 0 Z " fill="#6085D5" transform="translate(134,185)"/>
<path d="M0 0 C0.99 0.33 1.98 0.66 3 1 C3 2.98 3 4.96 3 7 C3.639375 7.12375 4.27875 7.2475 4.9375 7.375 C5.618125 7.58125 6.29875 7.7875 7 8 C7.33 8.66 7.66 9.32 8 10 C1.43243243 8.54054054 1.43243243 8.54054054 -0.5 6.125 C-1.06976385 3.70350362 -0.82945822 2.32248302 0 0 Z " fill="#5188C9" transform="translate(131,202)"/>
<path d="M0 0 C3.63 0 7.26 0 11 0 C11.33 1.65 11.66 3.3 12 5 C11.34 4.34 10.68 3.68 10 3 C7.33050591 2.75684344 7.33050591 2.75684344 4.375 2.875 C3.37210938 2.89304688 2.36921875 2.91109375 1.3359375 2.9296875 C0.17964844 2.96449219 0.17964844 2.96449219 -1 3 C-0.67 2.01 -0.34 1.02 0 0 Z " fill="#6375C6" transform="translate(156,165)"/>
<path d="M0 0 C0.66 0.33 1.32 0.66 2 1 C2.625 4.0625 2.625 4.0625 3 7 C1.68 7 0.36 7 -1 7 C-1 7.66 -1 8.32 -1 9 C-1.66 9 -2.32 9 -3 9 C-2.25 2.25 -2.25 2.25 0 0 Z " fill="#3D9CD8" transform="translate(74,148)"/>
<path d="M0 0 C2.475 0.99 2.475 0.99 5 2 C4.01 3.485 4.01 3.485 3 5 C3.66 5.33 4.32 5.66 5 6 C5 6.66 5 7.32 5 8 C3.02 8 1.04 8 -1 8 C-0.67 6.68 -0.34 5.36 0 4 C0.66 4 1.32 4 2 4 C2 3.34 2 2.68 2 2 C1.34 2 0.68 2 0 2 C0 1.34 0 0.68 0 0 Z " fill="#38B2E1" transform="translate(89,192)"/>
<path d="M0 0 C2.475 0.495 2.475 0.495 5 1 C5.75 2.625 5.75 2.625 6 5 C4.0625 8.25 4.0625 8.25 2 11 C1.34 10.01 0.68 9.02 0 8 C0.99 8 1.98 8 3 8 C1.69844994 3.92035719 1.69844994 3.92035719 0 0 Z " fill="#7F60C1" transform="translate(287,195)"/>
<path d="M0 0 C3.3 0 6.6 0 10 0 C9.01 0.495 9.01 0.495 8 1 C8 1.66 8 2.32 8 3 C5.03 3 2.06 3 -1 3 C-0.67 2.01 -0.34 1.02 0 0 Z " fill="#5BB5E9" transform="translate(87,159)"/>
<path d="M0 0 C0.66 0 1.32 0 2 0 C2 0.66 2 1.32 2 2 C2.61875 2.12375 3.2375 2.2475 3.875 2.375 C6 3 6 3 8 5 C7.01 5.33 6.02 5.66 5 6 C4.01 5.34 3.02 4.68 2 4 C2 4.66 2 5.32 2 6 C1.01 5.67 0.02 5.34 -1 5 C-0.67 3.35 -0.34 1.7 0 0 Z " fill="#5687C9" transform="translate(133,195)"/>
<path d="M0 0 C0.66 0.33 1.32 0.66 2 1 C1.2884375 1.6496875 1.2884375 1.6496875 0.5625 2.3125 C-1.23686957 4.02309613 -1.23686957 4.02309613 -2 7 C-0.68 7.33 0.64 7.66 2 8 C0.02 8 -1.96 8 -4 8 C-4.68707555 5.50935112 -5 3.62113708 -5 1 C-3.68 1 -2.36 1 -1 1 C-0.67 0.67 -0.34 0.34 0 0 Z " fill="#6D57C3" transform="translate(265,175)"/>
<path d="M0 0 C2.97 0 5.94 0 9 0 C8.67 0.99 8.34 1.98 8 3 C5.03 3 2.06 3 -1 3 C-0.67 2.01 -0.34 1.02 0 0 Z " fill="#3AB0F3" transform="translate(78,159)"/>
<path d="M0 0 C1.32 0.33 2.64 0.66 4 1 C3.45276317 4.37462715 2.9451 6.08235 1 9 C0.34 9 -0.32 9 -1 9 C-1.33 9.66 -1.66 10.32 -2 11 C-2.33 10.01 -2.66 9.02 -3 8 C-1 6 1 4 3 2 C2.01 2 1.02 2 0 2 C0 1.34 0 0.68 0 0 Z " fill="#8057DF" transform="translate(257,190)"/>
<path d="M0 0 C1.98 0 3.96 0 6 0 C4.02 0.99 4.02 0.99 2 2 C2 2.66 2 3.32 2 4 C3.32 4.33 4.64 4.66 6 5 C5.34 5.66 4.68 6.32 4 7 C3.01 7 2.02 7 1 7 C0.67 4.69 0.34 2.38 0 0 Z " fill="#8F52EE" transform="translate(270,166)"/>
<path d="M0 0 C0.66 0 1.32 0 2 0 C2 0.66 2 1.32 2 2 C2.66 2.33 3.32 2.66 4 3 C3.525625 3.680625 3.05125 4.36125 2.5625 5.0625 C0.7774364 8.41841956 0.36846914 11.24161481 0 15 C-0.33 15 -0.66 15 -1 15 C-1.09038099 9.84828377 -0.84681133 5.08086796 0 0 Z " fill="#6A69C5" transform="translate(215,174)"/>
<path d="M0 0 C0.66 0.33 1.32 0.66 2 1 C1 4 1 4 -0.8125 5.1875 C-3 6 -3 6 -7 6 C-7 5.34 -7 4.68 -7 4 C-1.7265625 0.77734375 -1.7265625 0.77734375 0 0 Z " fill="#8E61D1" transform="translate(284,195)"/>
<path d="M0 0 C5.61 0 11.22 0 17 0 C17 0.33 17 0.66 17 1 C15.95199219 1.03738281 14.90398437 1.07476562 13.82421875 1.11328125 C12.44527695 1.17894515 11.06637229 1.24539235 9.6875 1.3125 C8.65206055 1.34633789 8.65206055 1.34633789 7.59570312 1.38085938 C3.50793266 1.5836997 3.50793266 1.5836997 0.01953125 3.54296875 C-0.31691406 4.02378906 -0.65335937 4.50460938 -1 5 C-0.67 3.35 -0.34 1.7 0 0 Z " fill="#755BBA" transform="translate(262,190)"/>
<path d="M0 0 C5.94 1.485 5.94 1.485 12 3 C9 5 9 5 6 4.8125 C2.99222199 3.99789345 1.83789883 3.45053178 0 1 C0 0.67 0 0.34 0 0 Z " fill="#7A68D0" transform="translate(229,207)"/>
<path d="M0 0 C1.9375 0.3125 1.9375 0.3125 4 1 C4.33 1.99 4.66 2.98 5 4 C4.67 4.66 4.34 5.32 4 6 C2.68 6 1.36 6 0 6 C0 4.02 0 2.04 0 0 Z " fill="#796CDF" transform="translate(239,174)"/>
<path d="M0 0 C0.99 0.33 1.98 0.66 3 1 C-1.81578947 5.97631579 -1.81578947 5.97631579 -6.125 6.0625 C-7.07375 6.041875 -8.0225 6.02125 -9 6 C-6.94709452 4.97354726 -4.90024097 3.95439587 -2.8125 3 C-0.82798477 2.12855431 -0.82798477 2.12855431 0 0 Z " fill="#6E91CC" transform="translate(153,195)"/>
<path d="M0 0 C1.32 0.33 2.64 0.66 4 1 C2.35 2.98 0.7 4.96 -1 7 C-1.66 6.67 -2.32 6.34 -3 6 C-3 5.01 -3 4.02 -3 3 C-2.01 3 -1.02 3 0 3 C0 2.01 0 1.02 0 0 Z " fill="#509FCB" transform="translate(95,187)"/>
<path d="M0 0 C3.33727786 1.17255709 5.77437487 2.18868404 8 5 C8 5.66 8 6.32 8 7 C5.525 6.01 5.525 6.01 3 5 C3 4.01 3 3.02 3 2 C1.68 1.67 0.36 1.34 -1 1 C-0.67 0.67 -0.34 0.34 0 0 Z " fill="#8453C5" transform="translate(282,167)"/>
<path d="M0 0 C1.98 0 3.96 0 6 0 C5.34 1.32 4.68 2.64 4 4 C1 4 1 4 -1 3 C-0.67 2.01 -0.34 1.02 0 0 Z " fill="#5991D0" transform="translate(111,162)"/>
<path d="M0 0 C2.31 0 4.62 0 7 0 C6.67 0.99 6.34 1.98 6 3 C4.02 3.33 2.04 3.66 0 4 C0 2.68 0 1.36 0 0 Z " fill="#369FEE" transform="translate(75,149)"/>
<path d="M0 0 C1.65 0 3.3 0 5 0 C5 0.66 5 1.32 5 2 C5.99 2.33 6.98 2.66 8 3 C8 4.65 8 6.3 8 8 C6 7 6 7 4.5625 4.5625 C3.10335955 1.7644028 3.10335955 1.7644028 0 0 Z " fill="#7566C8" transform="translate(223,175)"/>
<path d="M0 0 C0.99 0.33 1.98 0.66 3 1 C2.8125 2.875 2.8125 2.875 2 5 C-0.5625 6.25 -0.5625 6.25 -3 7 C-2.67 6.01 -2.34 5.02 -2 4 C-1.34 4 -0.68 4 0 4 C0 2.68 0 1.36 0 0 Z " fill="#8F59D7" transform="translate(285,203)"/>
<path d="M0 0 C0 3.20395416 -0.74335022 5.09399739 -2 8 C-3.32 7.67 -4.64 7.34 -6 7 C-4.02 4.69 -2.04 2.38 0 0 Z " fill="#5E8DD3" transform="translate(118,173)"/>
<path d="M0 0 C2 3 2 3 1.75 6.125 C1.5025 7.07375 1.255 8.0225 1 9 C0.01 9.495 0.01 9.495 -1 10 C-0.67 6.7 -0.34 3.4 0 0 Z " fill="#5662C5" transform="translate(186,199)"/>
<path d="M0 0 C0.99 0 1.98 0 3 0 C3 1.65 3 3.3 3 5 C1.68 4.67 0.36 4.34 -1 4 C-0.67 2.68 -0.34 1.36 0 0 Z " fill="#2A9DEE" transform="translate(73,155)"/>
</svg>
